<svg xmlns="http://www.w3.org/2000/svg" width="1069.454" height="401.322" viewBox="0 0 1069.454 401.322">
  <g id="Group_239" data-name="Group 239" transform="translate(8630 1864)">
    <g id="Group_237" data-name="Group 237" transform="translate(-2878.934 -2165.877)">
      <path id="Path_15" data-name="Path 15" d="M-3729.347-1.315c-.5,3.27,7.885,7.171,12.172,6.532,5.475-2.15,6.961-3.1,8.989-9.39,3.125-27.348-26.558-52.959-31.761-64.253s-13.234-24.109-11.422-63.052c.129-8-5.31-3.593-5.31-3.593s-2.464,46.512,5.31,69.6S-3728.568-6.353-3729.347-1.315Z" transform="translate(-1005.404 454.856)" fill="#ffac3a"/>
      <path id="Subtraction_13" data-name="Subtraction 13" d="M134.142,401.321v0l23.3-21.446-7.028-34.764L136.73,363.97l-28.477,9.246,19.232-18.861-4.811-28.921-25.7-39.171-5.179,20.384L67.015,255.425l-5.544,11.1-7.4-43.828-23.3,3.887,19.6-17.752L25.6,210.52,0,187.476H28.445L54.073,166.14l-25.628-3.414L5.969,135.416l31.578,6.257,27.311-13.086-24.25-8.676L14.718,87.479l42.392,12.8,34.7-11.1L60.523,61.876,50.374,23.47,91.814,52.2l34.995,7.112L111.443,34.281V15.22l23.617,23.043,34.135,5.69h33.572l-23.9-13.087-30.441-9.387,34.16-3.983,50.9,15.078,16.076,13.513-5.121-23.043L225.669,0l44.66,23.043L284.556,52.2l59.457,45.944L372.3,137.6l7.329,24.695-1.97,42.892,1.97,7.44,10.067,2.408v7.659l-14.006,10.722,5.472,37.53,10.5,22.759,12.691,15.1-28.666,19.477-7.661-6.784-16.193-47.487-9.626-9.41,5.69,17.287,5.469,21.884v7.22l5.908,2.189-17.067,12.254H315.074L291.439,316.9l25.6,1.97L299.1,303.77l-1.972-13.787L313.1,301.362l-3.718-15.1h5.69l-5.69-15.319L280.28,248.4l-24.3-8.316-14-11.6,21.445,3.283-24.946-9.082-11.16-10.067,14.66,2.408L229.928,199.4l-18.489-13.684-22.563,4.068-6.289,28.478,44.735,44.379,34.04,44.011,30.077,45.858-82.223-5.177L162.25,393.557ZM342.6,202.425a.093.093,0,0,0-.043.024c-.023.019-.019.053.012.1-.084.179-.3.548-.592,1.057-1.884,3.254-7.612,13.148-5.47,19.136.973,2.726,3.946,4.108,8.839,4.11a45.475,45.475,0,0,0,11.012-1.68,26.325,26.325,0,0,0-3.759-12.982c-2.114-3.354-6.019-6.4-8.353-8.225a12.139,12.139,0,0,1-1.676-1.417c.033-.071.046-.11.039-.122A.008.008,0,0,0,342.6,202.425Z" transform="translate(-5085.967 301.877)" fill="#db7f01"/>
      <path id="Path_14" data-name="Path 14" d="M-3729.347-1.315c-.5,3.27,7.885,7.171,12.172,6.532,5.475-2.15,6.961-3.1,8.989-9.39,3.125-27.348-26.558-52.959-31.761-64.253s-13.234-24.109-11.422-63.052c.129-8-5.31-3.593-5.31-3.593s-2.464,46.512,5.31,69.6S-3728.568-6.353-3729.347-1.315Z" transform="translate(-1030.131 454.856)" fill="#ffac3a"/>
      <path id="Path_16" data-name="Path 16" d="M-4693.739,708.824s13.751-16.815-22.79-26.589c-19.943-3.949-35.723-6.554-35.723-6.554l-30.285,44.963,10.1,65.49,72.118,82.107,83.781,6.418-66.087-92.764-43.771-45.6,6.566-25.583Z" transform="translate(-174.167 -218.399)" fill="#ffac3a"/>
      <path id="Path_17" data-name="Path 17" d="M-4597.857,710.849l2.471,2.88,15.322,12.457,10.6,13.13V711.3l-41.092-25.035Z" transform="translate(-276.165 -223.289)" fill="none"/>
    </g>
    <text id="بــالعـربــيــة" transform="translate(-8029 -1529)" fill="#ffac3a" font-size="113" font-family="Cairo-Bold, Cairo" font-weight="700"><tspan x="-600.03" y="0">بــالعـربــيــة</tspan></text>
    <g id="Group_238" data-name="Group 238">
      <text id="عالم" transform="translate(-8029 -1715)" fill="#999" font-size="114" font-family="Cairo-SemiBold, Cairo" font-weight="600"><tspan x="-207.138" y="0">عالم</tspan></text>
      <text id="Wuxia" transform="translate(-8298 -1715)" fill="#999" font-size="114" font-family="Cairo-Black, Cairo" font-weight="800"><tspan x="-320.34" y="0">Wuxia</tspan></text>
    </g>
  </g>
</svg>
